<svg width="32" height="32" viewBox="0 0 32 32" fill="none" xmlns="http://www.w3.org/2000/svg">
<g clip-path="url(#clip0_694_3370)">
<g clip-path="url(#clip1_694_3370)">
<path d="M31.438 12.5785L27.434 9.31525V4.09638C27.434 3.50869 26.9559 3.0305 26.3682 3.0305H23.8488C23.2611 3.0305 22.7829 3.50869 22.7829 4.09638V5.52438L17.4328 1.16404C17.0458 0.848727 16.5358 0.674988 15.9966 0.674988C15.4596 0.674988 14.9519 0.847661 14.5671 1.16132L0.562018 12.5784C-0.0743151 13.0969 -0.036137 13.5486 0.0432229 13.7716C0.122389 13.9942 0.377329 14.3676 1.19477 14.3676H3.11249V29.3818C3.11249 30.4533 3.98186 31.3249 5.05046 31.3249H11.1066C12.1662 31.3249 12.9961 30.4713 12.9961 29.3818V23.2248C12.9961 22.697 13.4811 22.2165 14.0136 22.2165H18.0833C18.5909 22.2165 19.0039 22.6688 19.0039 23.2248V29.3818C19.0039 30.4351 19.9135 31.3249 20.9903 31.3249H26.9496C28.0182 31.3249 28.8875 30.4532 28.8875 29.3818V14.3676H30.8052C31.6227 14.3676 31.8775 13.9942 31.9568 13.7716C32.0361 13.5486 32.0743 13.0969 31.438 12.5785Z" fill="#FFCE1F"/>
</g>
</g>
<defs>
<clipPath id="clip0_694_3370">
<rect width="32" height="32" fill="white"/>
</clipPath>
<clipPath id="clip1_694_3370">
<rect width="32" height="32" fill="white"/>
</clipPath>
</defs>
</svg>
