<svg width="32" height="32" viewBox="0 0 32 32" fill="none" xmlns="http://www.w3.org/2000/svg">
<path d="M2.99048 0H22.3429C22.8899 0 23.3333 0.443504 23.3333 0.990476V5.86667C23.3333 6.41371 22.8899 6.85714 22.3429 6.85714H10.6095C9.64175 6.85714 8.85714 7.64175 8.85714 8.60952V24.9143C8.85714 25.4613 8.41371 25.9048 7.86667 25.9048H2.99048C2.44343 25.9048 2 25.4613 2 24.9143V0.990476C2 0.443428 2.44343 0 2.99048 0ZM12.1333 9.14286H28.4381C28.9851 9.14286 29.4286 9.58629 29.4286 10.1333V31.0095C29.4286 31.5566 28.9851 32 28.4381 32H12.1333C11.5863 32 11.1429 31.5566 11.1429 31.0095V10.1333C11.1429 9.58629 11.5863 9.14286 12.1333 9.14286Z"/>
</svg>
