<svg width="24" height="24" viewBox="0 0 24 24" fill="none" xmlns="http://www.w3.org/2000/svg">
<g clip-path="url(#clip0_694_3437)">
<path d="M12 2.42812C6.72188 2.42812 2.42812 6.72188 2.42812 12C2.42812 17.2781 6.72188 21.5719 12 21.5719C17.2781 21.5719 21.5719 17.2781 21.5719 12C21.5719 6.72188 17.2781 2.42812 12 2.42812V2.42812ZM12 23.4844C5.66719 23.4844 0.515625 18.3328 0.515625 12C0.515625 5.66719 5.66719 0.515625 12 0.515625C18.3328 0.515625 23.4844 5.66719 23.4844 12C23.4844 18.3328 18.3328 23.4844 12 23.4844Z" fill="white"/>
<path d="M16.1296 12.9562H12C11.4703 12.9562 11.0437 12.5297 11.0437 12V4.6031C11.0437 4.07341 11.4703 3.64685 12 3.64685C12.5296 3.64685 12.9562 4.07341 12.9562 4.6031V11.0437H16.1296C16.6593 11.0437 17.0859 11.4703 17.0859 12C17.0859 12.5297 16.6593 12.9562 16.1296 12.9562V12.9562Z" fill="white"/>
</g>
<defs>
<clipPath id="clip0_694_3437">
<rect width="24" height="24" fill="white"/>
</clipPath>
</defs>
</svg>
