<svg width="32" height="29" viewBox="0 0 32 29" fill="none" xmlns="http://www.w3.org/2000/svg">
<path d="M11.2 12.8C12.4658 12.8 13.7032 12.4246 14.7557 11.7214C15.8082 11.0182 16.6285 10.0186 17.1129 8.84918C17.5973 7.67973 17.724 6.3929 17.4771 5.15142C17.2301 3.90995 16.6206 2.76958 15.7255 1.87452C14.8305 0.979463 13.6901 0.369922 12.4486 0.122977C11.2071 -0.123968 9.92032 0.002773 8.75088 0.487174C7.58143 0.971575 6.58188 1.79188 5.87864 2.84435C5.1754 3.89683 4.80005 5.1342 4.80005 6.4C4.80005 8.09739 5.47433 9.72525 6.67457 10.9255C7.8748 12.1257 9.50266 12.8 11.2 12.8Z"/>
<path d="M24 15.9999C24.9493 15.9999 25.8773 15.7184 26.6667 15.191C27.456 14.6635 28.0713 13.9139 28.4346 13.0368C28.7979 12.1597 28.8929 11.1946 28.7077 10.2635C28.5225 9.33236 28.0654 8.47708 27.3941 7.80579C26.7228 7.1345 25.8675 6.67734 24.9364 6.49214C24.0053 6.30693 23.0402 6.40198 22.1631 6.76528C21.286 7.12858 20.5363 7.74381 20.0089 8.53317C19.4815 9.32252 19.2 10.2506 19.2 11.1999C19.2 12.4729 19.7057 13.6938 20.6058 14.594C21.506 15.4942 22.7269 15.9999 24 15.9999Z" />
<path d="M30.4 27.2C30.8243 27.2 31.2313 27.0314 31.5314 26.7314C31.8314 26.4313 32 26.0243 32 25.6C31.9987 24.1046 31.5783 22.6396 30.7866 21.371C29.9948 20.1024 28.8633 19.0812 27.5206 18.4231C26.1778 17.7651 24.6774 17.4965 23.1897 17.648C21.7021 17.7994 20.2866 18.3648 19.104 19.28C17.5368 17.719 15.5425 16.6569 13.3725 16.2279C11.2025 15.7988 8.95411 16.0219 6.91076 16.869C4.86741 17.7161 3.12066 19.1493 1.89079 20.9879C0.660911 22.8264 0.00299231 24.988 0 27.2C0 27.6243 0.168571 28.0313 0.468629 28.3314C0.768687 28.6314 1.17565 28.8 1.6 28.8H20.8C21.2243 28.8 21.6313 28.6314 21.9314 28.3314C22.2314 28.0313 22.4 27.6243 22.4 27.2"/>
</svg>
