<svg width="55" height="64" viewBox="0 0 55 64" fill="none" xmlns="http://www.w3.org/2000/svg">
<path fill-rule="evenodd" clip-rule="evenodd" d="M21.8438 0.0353164C21.8438 0.0626188 21.814 0.0798482 21.7894 0.0681279C21.6975 0.0244551 21.5947 0 21.4858 0C9.6195 0 0 9.78552 0 21.8566C0 33.9276 9.6195 43.7131 21.4858 43.7131C21.8852 43.7131 22.202 43.3843 22.202 42.9849V34.7403C22.202 34.2566 21.7904 33.8777 21.3067 33.8777C14.6814 33.8777 9.3105 28.4141 9.3105 21.6744C9.3105 14.9348 14.6814 9.47118 21.3067 9.47118H26.4983C26.4987 9.47118 26.4991 9.4708 26.4991 9.47034C26.4991 9.46987 26.4995 9.4695 26.4999 9.46951C26.5592 9.47062 26.6186 9.47118 26.6781 9.47118C31.7213 9.47118 35.8096 5.46636 35.8096 0.526176C35.8096 0.230507 35.5632 0 35.2676 0H21.8792C21.8597 0 21.8438 0.0158117 21.8438 0.0353164Z" fill="#FFCE1F"/>
<path fill-rule="evenodd" clip-rule="evenodd" d="M53.6969 17.4794C54.0332 16.8142 53.5498 16.0281 52.8045 16.0281H27.9608H27.6872C27.6861 16.0281 27.6852 16.0291 27.6852 16.0302C27.6852 16.0313 27.6843 16.0322 27.6832 16.0322C22.8824 16.1745 19.1234 19.9955 18.6676 24.8649C18.6161 25.4148 19.0688 25.8636 19.6211 25.8636H27.6852H37.6667H48.8425C49.2196 25.8636 49.5647 25.6514 49.7349 25.3148L53.6969 17.4794Z" fill="#FFCE1F"/>
<path fill-rule="evenodd" clip-rule="evenodd" d="M49.8294 21.2857C50.6735 20.9633 51.4791 21.8587 51.0807 22.6766L35.8628 53.9207C35.8617 53.9229 35.8591 53.9238 35.8569 53.9227C35.8547 53.9216 35.8521 53.9225 35.851 53.9247C33.1818 59.1663 27.7711 61.6071 23.1695 59.9412C22.6503 59.7532 22.4448 59.1428 22.6855 58.6448L27.0818 49.5475C27.0903 49.5298 27.083 49.5084 27.0655 49.4995C27.048 49.4907 27.0407 49.4693 27.0492 49.4516L38.4229 25.9313C38.5329 25.7037 38.7244 25.5275 38.9589 25.4379L49.8294 21.2857Z" fill="#FFCE1F"/>
</svg>
