<svg width="24" height="24" viewBox="0 0 24 24" fill="none" xmlns="http://www.w3.org/2000/svg">
<path d="M22.6666 6.66667H21.3333V5.33333C21.3333 4.97971 21.1928 4.64057 20.9428 4.39052C20.6927 4.14048 20.3536 4 20 4C19.6463 4 19.3072 4.14048 19.0572 4.39052C18.8071 4.64057 18.6666 4.97971 18.6666 5.33333V6.66667H17.3333C16.9797 6.66667 16.6405 6.80714 16.3905 7.05719C16.1404 7.30724 16 7.64638 16 8C16 8.35362 16.1404 8.69276 16.3905 8.94281C16.6405 9.19286 16.9797 9.33333 17.3333 9.33333H18.6666V10.6667C18.6666 11.0203 18.8071 11.3594 19.0572 11.6095C19.3072 11.8595 19.6463 12 20 12C20.3536 12 20.6927 11.8595 20.9428 11.6095C21.1928 11.3594 21.3333 11.0203 21.3333 10.6667V9.33333H22.6666C23.0203 9.33333 23.3594 9.19286 23.6094 8.94281C23.8595 8.69276 24 8.35362 24 8C24 7.64638 23.8595 7.30724 23.6094 7.05719C23.3594 6.80714 23.0203 6.66667 22.6666 6.66667Z" fill="white"/>
<path d="M10 11C10.7911 11 11.5645 10.7654 12.2223 10.3259C12.8801 9.88635 13.3928 9.26164 13.6955 8.53074C13.9983 7.79983 14.0775 6.99556 13.9231 6.21964C13.7688 5.44372 13.3878 4.73098 12.8284 4.17157C12.269 3.61216 11.5563 3.2312 10.7804 3.07686C10.0044 2.92252 9.20017 3.00173 8.46927 3.30448C7.73836 3.60723 7.11365 4.11992 6.67412 4.77772C6.2346 5.43552 6 6.20888 6 7C6 8.06087 6.42143 9.07828 7.17157 9.82843C7.92172 10.5786 8.93913 11 10 11Z" fill="white"/>
<path d="M15.9999 21C16.2652 21 16.5195 20.8946 16.707 20.7071C16.8946 20.5196 16.9999 20.2652 16.9999 20C16.9999 18.1435 16.2624 16.363 14.9497 15.0503C13.6369 13.7375 11.8565 13 9.99994 13C8.14342 13 6.36295 13.7375 5.05019 15.0503C3.73744 16.363 2.99994 18.1435 2.99994 20C2.99994 20.2652 3.1053 20.5196 3.29283 20.7071C3.48037 20.8946 3.73472 21 3.99994 21" fill="white"/>
</svg>
