<svg width="24" height="24" viewBox="0 0 24 24" fill="none" xmlns="http://www.w3.org/2000/svg">
<path d="M9.00018 11C9.79131 11 10.5647 10.7654 11.2225 10.3259C11.8803 9.88635 12.393 9.26164 12.6957 8.53074C12.9985 7.79983 13.0777 6.99556 12.9233 6.21964C12.769 5.44372 12.388 4.73098 11.8286 4.17157C11.2692 3.61216 10.5565 3.2312 9.78054 3.07686C9.00462 2.92252 8.20035 3.00173 7.46945 3.30448C6.73855 3.60723 6.11383 4.11992 5.6743 4.77772C5.23478 5.43552 5.00018 6.20888 5.00018 7C5.00018 8.06087 5.42161 9.07828 6.17176 9.82843C6.9219 10.5786 7.93932 11 9.00018 11Z" fill="white"/>
<path d="M17.0002 13C17.5935 13 18.1735 12.8241 18.6669 12.4944C19.1602 12.1648 19.5448 11.6962 19.7718 11.1481C19.9989 10.5999 20.0583 9.99667 19.9425 9.41473C19.8268 8.83279 19.5411 8.29824 19.1215 7.87868C18.7019 7.45912 18.1674 7.1734 17.5855 7.05765C17.0035 6.94189 16.4003 7.0013 15.8521 7.22836C15.304 7.45543 14.8354 7.83994 14.5058 8.33329C14.1761 8.82664 14.0002 9.40666 14.0002 10C14.0002 10.7957 14.3163 11.5587 14.8789 12.1213C15.4415 12.6839 16.2045 13 17.0002 13Z" fill="white"/>
<path d="M21.0002 20.0001C21.2654 20.0001 21.5198 19.8947 21.7073 19.7072C21.8948 19.5196 22.0002 19.2653 22.0002 19.0001C21.9994 18.0655 21.7366 17.1498 21.2418 16.3569C20.7469 15.5641 20.0398 14.9258 19.2005 14.5145C18.3613 14.1032 17.4236 13.9354 16.4938 14.0301C15.564 14.1247 14.6793 14.4781 13.9402 15.0501C12.9607 14.0744 11.7142 13.4106 10.358 13.1425C9.00177 12.8743 7.5965 13.0137 6.31941 13.5432C5.04232 14.0726 3.9506 14.9684 3.18192 16.1175C2.41325 17.2666 2.00205 18.6176 2.00018 20.0001C2.00018 20.2653 2.10554 20.5196 2.29308 20.7072C2.48061 20.8947 2.73497 21.0001 3.00018 21.0001H15.0002C15.2654 21.0001 15.5198 20.8947 15.7073 20.7072C15.8948 20.5196 16.0002 20.2653 16.0002 20.0001" fill="white"/>
</svg>
